<svg id="Layer_1" data-name="Layer 1" xmlns="http://www.w3.org/2000/svg" viewBox="0 0 90 90"><path d="M28,58.83H75.9v8.09H40.35c-4,0-8,.13-12,0C21.23,66.6,16.92,60,21.05,54.4c4.69-6.3,3.77-11.58.54-17.74A97.3,97.3,0,0,1,15.64,22.4c-1.81-5.39-4.08-9.54-11.2-7.14V6.87A94.47,94.47,0,0,1,15.73,7c1.27.16,2.78,2,3.39,3.38,4.12,9.45,8.13,19,11.94,28.54,1.13,2.84,2.47,4.16,5.75,4,7.16-.27,14.35-.21,21.51,0,2.86.07,4.5-.78,5.88-3.38,4.59-8.66,9.47-17.17,14.51-26.23L85.56,17c-.83,1.66-1.54,3.22-2.36,4.72C78.85,29.58,74.42,37.4,70.14,45.3A9.82,9.82,0,0,1,60.44,51c-7.34-.17-14.73.51-22-.21C32.1,50.11,30,53.55,28,58.83Z"/><path d="M63.94,22.88H52.23V34.65H44.32V23h-12v-7.9h11.7V3.1H52V14.8h12Z"/><path d="M36.08,78.91a8,8,0,1,1-8-8A8.07,8.07,0,0,1,36.08,78.91Z"/><path d="M68.26,71a8,8,0,1,1-8.05,7.89A8.05,8.05,0,0,1,68.26,71Z"/></svg>