<svg id="Layer_1" data-name="Layer 1" xmlns="http://www.w3.org/2000/svg" viewBox="0 0 90 90"><path d="M45.35,81.11A35.62,35.62,0,1,1,81.11,45.77,35.57,35.57,0,0,1,45.35,81.11Zm.09-63.31c-1.7,2.89-2.34,5.6-3.85,6.24-5.17,2.19-7.89,5.6-8,11.25-.1,5.93,3.13,9.4,8.08,11.86,2.19,1.08,4.93,2,6.16,3.84s1.47,4.87,1.19,7.26c-.12,1-3.33,2.79-4,2.38-1.84-1.14-3.11-3.22-4.53-5a5.4,5.4,0,0,1-.62-1.57H32.67c-.19,7.8,4.07,11.66,10.73,13.49l.26,5.36h3.92L48,67.53C53.93,66,58,62.72,58.2,56c.16-7-4.1-10.62-9.9-13.31-2-.93-4.36-2.39-5.19-4.23s-.4-4.71,0-7c.1-.57,2.83-1.47,3.24-1.07a26.83,26.83,0,0,1,3.37,4.87c.26.4.48.82.7,1.2h7.7c-.44-5.35-2.28-9.31-7.14-11.72a5.3,5.3,0,0,1-2.51-3.83C48.39,17.69,47,17.31,45.44,17.8Z"/></svg>