<svg id="Layer_1" data-name="Layer 1" xmlns="http://www.w3.org/2000/svg" viewBox="0 0 90 90"><path d="M45.3,81.11c-7.93,0-15.86-.1-23.79,0-5.24.09-8.33-2.21-9.69-7.27-3-11.29-6.24-22.54-9.3-33.83-1.25-4.62.16-6.36,5.06-6.48,5.6-.14,12.25,1.63,16.51-.8,4.68-2.67,7.15-9.18,10.57-14,2.27-3.24,4.46-6.54,6.78-9.75,3.06-4.25,5.39-4.32,8.38-.09,4.57,6.47,9.25,12.88,13.34,19.64,2.46,4.07,5.33,5.67,10,5.11a73.63,73.63,0,0,1,10.4-.06c4.88.11,6.29,1.87,5,6.49Q84,57.26,79.16,74.38c-1.26,4.56-4.27,6.8-9.09,6.75C61.81,81.05,53.55,81.11,45.3,81.11ZM27.43,55.48l14.16,14L63.1,48,58,42.44,41.84,59.7l-9.27-8.79ZM57,33.35,45.64,16.8,34.23,33.35Z"/></svg>