<svg id="Layer_1" data-name="Layer 1" xmlns="http://www.w3.org/2000/svg" viewBox="0 0 90 90"><path d="M53,66.1c-5.4,0-10.8.05-16.2,0C30.13,66,27.26,63.8,25.25,57,21.2,43.43,17.1,29.83,13.31,16.15c-1-3.63-2.24-5.82-6.48-5.22-2.51.35-5.73.22-5.29-3.35.15-1.21,3.31-2.82,5.17-2.94C15,4.13,17,5.78,19.38,13.82,22.4,24,22.4,24,32.71,24q24.84,0,49.7,0c6.26,0,7,1,5.35,7-2.32,8.69-4.62,17.37-7.05,26-1.93,6.9-4.85,9-12,9.09C63.46,66.13,58.23,66.1,53,66.1Z"/><path d="M36.88,72.53c4.11.73,6.6,2.89,6.32,6.92s-2.86,6.27-6.87,6A5.89,5.89,0,0,1,30.48,79C30.58,74.89,33.24,73,36.88,72.53Z"/><path d="M62.73,79.31c.57-4.18,2.65-6.72,6.69-6.6s6.35,2.65,6.2,6.65a5.87,5.87,0,0,1-6.24,6.07C65.32,85.48,63.34,82.89,62.73,79.31Z"/></svg>