<svg id="Layer_1" data-name="Layer 1" xmlns="http://www.w3.org/2000/svg" viewBox="0 0 90 90"><path d="M45.38,77.15c-9.91,0-19.83,0-29.74,0-6.85,0-9.71-2.83-9.73-9.58Q5.84,45.29,5.92,23c0-6.21,2.93-9.2,9.06-9.21q30.5-.1,61,0c6.22,0,9.2,2.94,9.23,9.06q.12,22.53,0,45.07c0,6.38-3,9.2-9.57,9.23C65.55,77.19,55.47,77.15,45.38,77.15Zm11.4-51.53-27,36.15,4.69,3.4,26.92-36ZM41.55,31.43a9.88,9.88,0,1,0-9.49,10A10,10,0,0,0,41.55,31.43Zm27.77,27.9a9.88,9.88,0,1,0-9.66,9.86A10,10,0,0,0,69.32,59.33Z"/><path d="M37.38,32.42c-1.86,1.35-3.84,3.9-5.56,3.73s-4.36-2.76-4.71-4.64c-.25-1.3,2.57-4.37,4.22-4.52,1.87-.18,4,2,5.94,3.2Z"/><path d="M58.13,64.93c-1.2-2-3.43-4-3.28-5.88C55,57.4,58,54.53,59.3,54.75c1.89.34,4.5,2.83,4.72,4.65S61.69,63.12,60.37,65Z"/></svg>