<svg id="Layer_1" data-name="Layer 1" xmlns="http://www.w3.org/2000/svg" viewBox="0 0 90 90"><path d="M1.26,34.94c3-.5,5.93-1.21,8.92-1.44q9.39-.72,18.81-1c2.65-.07,4.09-.76,5.05-3.52,2.64-7.57,5.65-15,8.67-22.45.47-1.17,1.71-2,2.6-3.06a14.54,14.54,0,0,1,2.2,3c3,7.58,6.05,15.18,8.84,22.85.84,2.28,2,3.07,4.4,3.15,8,.29,16,.8,24.06,1.36a17.2,17.2,0,0,1,3.93,1.24c-.76,1.14-1.3,2.52-2.31,3.36-6.26,5.26-12.71,10.3-18.88,15.67a5.63,5.63,0,0,0-1.47,4.62c1.85,7.95,4.11,15.81,6.08,23.73.3,1.23-.22,2.66-.36,4a15.82,15.82,0,0,1-3.54-1.17c-6.8-4.27-13.61-8.53-20.24-13-2.21-1.5-3.74-1.33-5.84.08-6.68,4.45-13.47,8.74-20.28,13a14.33,14.33,0,0,1-3.54,1.1c-.12-1.35-.59-2.78-.29-4,2-7.92,4.22-15.78,6.1-23.72A5.2,5.2,0,0,0,23,54.38c-7.12-6-14.45-11.82-21.71-17.69ZM22.07,81.15C29.27,76.52,35.7,72.52,42,68.3c2.25-1.52,4-1.59,6.26,0C54.52,72.51,61,76.5,68.12,81.08c-2-7.83-3.61-14.92-5.77-21.82-1.11-3.56-.26-5.61,2.58-7.77,5.66-4.31,11.07-9,17.53-14.27C74,36.74,66.6,36.13,59.24,36c-3.18-.06-4.63-1.2-5.67-4.1C51.08,25,48.26,18.16,45.11,10.1c-3,7.75-5.77,14.26-8,20.94-1.22,3.54-3,5-6.89,5-7.06,0-14.12.7-22.35,1.17,6.56,5.4,12.09,10.12,17.83,14.57,2.55,2,3.29,3.87,2.32,7.08C25.84,65.92,24.16,73.12,22.07,81.15Z"/></svg>