<svg id="Layer_1" data-name="Layer 1" xmlns="http://www.w3.org/2000/svg" viewBox="0 0 90 90"><path d="M45.44,17.78c10.06,0,20.12,0,30.18,0,6.49,0,9.41,2.9,9.44,9.34q.1,18.3,0,36.61c0,6.48-2.91,9.42-9.34,9.43q-30.18.09-60.36,0c-6.49,0-9.4-2.91-9.43-9.34q-.1-18.32,0-36.62c0-6.48,2.9-9.38,9.33-9.43C25.32,17.73,35.38,17.78,45.44,17.78ZM24.62,40.86C32.25,44,31,49.37,30.52,54.51l5.37.81L27.33,63.2,32,67.79l.86,1.32a86.47,86.47,0,0,1,5.84-7.33c5.15-5.28,8.36-5.16,13.76.07,2.22,2.15,4.46,4.26,6.26,6l4.87-4.46,1.44-.8c-3-2.34-6-4.67-9.57-7.43L61,54.45c-2.54-5.82-.14-10,4-13.08-1.92-2.49-4.17-4.33-4.89-6.65s.13-5.09.32-8.29c-6.15,1.35-11.46.9-15.41-5.55-3.14,7.72-9,5.47-14.47,5.51C31.16,31.94,32,37.38,24.62,40.86Z"/><path d="M45.45,32.46c2.87,3.7,6,6,6.27,8.55.26,2.83-2.84,5.26-6.12,5.89-1.86.36-7.22-4.64-6.45-6.08C40.5,38.29,42.59,36.15,45.45,32.46Z"/></svg>