<svg id="Layer_1" data-name="Layer 1" xmlns="http://www.w3.org/2000/svg" viewBox="0 0 90 90"><path d="M14.27,50.76c-1.13,1-2.32,1.88-3.42,2.91a7.65,7.65,0,0,0-1.37,1.86c-1.07,2-.57,3.81,1.44,5.32,2.31,1.73,5,2.37,8,2.91.93-14.11,1.85-28.12,2.77-42.23H32.25c.07-1,.11-1.9.21-2.8a45.92,45.92,0,0,1,.83-7,15.61,15.61,0,0,1,30.27,1.1,56.24,56.24,0,0,1,.56,6.25c.06.77.12,1.53.18,2.39H71c1.06,0,2.13,0,3.19,0,.59,0,.76.18.8.78.38,6.15.8,12.3,1.21,18.45,0,.14,0,.27.08.56,2.56-1.72,5-3.41,5.88-6.44a4.75,4.75,0,0,0-.8-4.18c-.8-1.13-1.81-2.11-2.63-3.06a14,14,0,0,1,1.69.92A40.16,40.16,0,0,1,84.94,32c3.21,3.1,3.48,7,.91,10.65a24.72,24.72,0,0,1-7.24,6.38c-3.64,2.33-7.74,3.42-11.84,4.48-7.43,1.93-15,3.34-22.55,4.53l-3.37.56,0,.27c3.7-.35,7.41-.64,11.1-1.06s7.39-.9,11.07-1.5,7.39-1.27,11-2.14,7.15-2,10.8-3c.13,2.07.27,4.06.4,6.06,0,.29,0,.57,0,.86.12,1.84.12,1.85-1.67,2.3s-3.5.86-5.26,1.26c-.57.13-.85.32-.8,1,.36,5.29.66,10.59,1,15.88.19,3.07.43,6.13.63,9.19,0,.56,0,1.13,0,1.75H17.29q.24-4.68.48-9.24L6.83,77.13l.07-.29c2.94.12,5.88.34,8.82.34,6.4,0,12.8.06,19.19-.19a82.7,82.7,0,0,0,19-2.68,7.39,7.39,0,0,0,2-.86c-1.69.1-3.38.21-5.08.3-2.49.12-5,.27-7.47.32-3.84.07-7.69.19-11.53.08a91.78,91.78,0,0,1-14.12-1.23,28.83,28.83,0,0,1-9.11-3.19A12.14,12.14,0,0,1,4,65.42c-1.58-2.72-1-6.07,1.47-8.77a26.73,26.73,0,0,1,8.69-5.9C14.17,50.72,14.26,50.76,14.27,50.76ZM59.91,21.45c-.11-2-.18-4-.31-5.9A11.42,11.42,0,0,0,49.4,4.85a11.17,11.17,0,0,0-12,8.43,63.46,63.46,0,0,0-.85,8.17ZM32,25.37a4,4,0,0,0-2.19,4.42,4.24,4.24,0,0,0,8.29.13,3.83,3.83,0,0,0-1.76-4.28c-.06,1.14-.11,2.25-.2,3.36a2.15,2.15,0,0,1-2.32,2.14,2.19,2.19,0,0,1-2-2.51C31.94,27.57,32,26.52,32,25.37Zm28.13.17a4.16,4.16,0,0,0-1.53,5.06,4.22,4.22,0,0,0,8.11-1.29c.08-1.85-.86-3.51-2.21-3.87,0,1.1.08,2.19.16,3.27A2.12,2.12,0,0,1,64,30.62a2.07,2.07,0,0,1-2.26.33,2.14,2.14,0,0,1-1.32-2C60.29,27.88,60.24,26.76,60.17,25.54Z"/></svg>