<svg id="Layer_1" data-name="Layer 1" xmlns="http://www.w3.org/2000/svg" viewBox="0 0 90 90"><path d="M67.55,54.15a5.63,5.63,0,0,0-1.47,4.62c1.85,7.95,4.11,15.81,6.08,23.73.3,1.23-.22,2.66-.36,4a15.82,15.82,0,0,1-3.54-1.17c-6.8-4.27-13.61-8.53-20.24-13-2.21-1.5-3.74-1.33-5.84.08-6.68,4.45-13.47,8.74-20.28,13a14.33,14.33,0,0,1-3.54,1.1c-.12-1.35-.59-2.78-.29-4,2-7.92,4.22-15.78,6.1-23.72A5.2,5.2,0,0,0,23,54.38c-7.12-6-14.45-11.82-21.71-17.69V34.94c3-.5,5.93-1.21,8.92-1.44q9.39-.72,18.81-1c2.65-.07,4.09-.76,5.05-3.52,2.64-7.57,5.65-15,8.67-22.45.47-1.17,1.71-2,2.6-3.06a14.54,14.54,0,0,1,2.2,3c3,7.58,6.05,15.18,8.84,22.85.84,2.28,2,3.07,4.4,3.15,8,.29,16,.8,24.06,1.36a17.2,17.2,0,0,1,3.93,1.24c-.76,1.14-1.3,2.52-2.31,3.36C80.17,43.74,73.72,48.78,67.55,54.15Z"/></svg>