<svg id="Layer_1" data-name="Layer 1" xmlns="http://www.w3.org/2000/svg" viewBox="0 0 463 150"><path d="M240.76,110.19c4.69,8,15.8,8.26,21.7,4,2.56-1.85,5-3.93,7.33-6a3.07,3.07,0,0,0,.86-2.08q.24-17.89.36-35.78c0-.44,0-.89-.05-1.32-.47-5.26-.83-5.61-6.09-5.59-2.35,0-5.3-.72-6.88.41s-1.81,4.15-2.55,6.37q-4,12-8,24.08a12,12,0,0,0-.59,2.34c-.31,2.73,1.08,4.42,3.79,4.08a41.19,41.19,0,0,0,6.76-1.87,24,24,0,0,0,2.6-1.28c-.44,1.28-.45,2.22-.92,2.57-4.28,3.22-8.8,6-14.44,5.91-4.71-.08-6.84-1.69-8.61-6.37-2,1-4,2.11-6,3a66.72,66.72,0,0,1-8.29,3c-6.38,1.67-9.42-1.37-8-7.79a4.32,4.32,0,0,0,.07-2.34l-1.57,1.67c-4.38,4.69-9.37,8.31-16.05,8.85-4.8.4-8.57-1.14-10.44-5.48-4.66,1.75-9.21,3.55-13.83,5.12a13,13,0,0,1-4.8.59c-3.38-.16-4.85-2-4.6-5.4.07-.87.15-1.74.22-2.61l-.87-.75a8.31,8.31,0,0,1-1.12,2.11c-3.82,3.82-8.27,6.36-13.85,6.46-5.89.11-9.82-2.64-11.7-8.19-.14-.41-.3-.81-.48-1.26-2.94,1.59-5.73,3.21-8.61,4.64a43.49,43.49,0,0,1-16.64,4.92c-10.84.73-17.79-6.58-15.49-17.14,2.79-12.82,9.77-22.92,21.62-29.18a27.22,27.22,0,0,1,14.79-3c6.77.45,10.42,5.69,8.53,12.21a20,20,0,0,1-8.24,10.88c-6.16,4.31-13.2,6.1-20.51,7-4.8.58-4.82.5-5.58,5.38a18,18,0,0,0-.29,2.62c-.08,4.43,2.15,6.84,6.56,6.74,8.25-.19,15.72-3,22.68-7.25a2.54,2.54,0,0,0,.87-1.78c1.58-21.88,23.78-38.81,45.47-34.63,2.14.41,4.26,1,6.58,1.51l-6.68,20c-1.66,5-3.38,9.89-5,14.86-.66,2-1.49,4.31.42,6s3.76.09,5.57-.59a7.94,7.94,0,0,0,5.32-5.86c2.58-8.73,6-17.23,9-25.82.23-.62.47-1.24.65-1.88,1-3.52.52-4.39-3-5.5,5.52-2,11.4-2.45,17.48-3.82-1,2.67-1.78,5-2.62,7.31Q202.27,78.79,197,93.41c-.73,2-1.62,4.26.22,6s4.19,1,6.25.09a21.92,21.92,0,0,0,11.72-11.82c3.16-7.35,5.76-15,8.42-22.5.92-2.62,0-3.49-3.37-4.15.68-1.1,11.15-3.37,17-3.65-.3,1-.54,1.82-.84,2.68-3.85,11.12-7.73,22.23-11.55,33.36a14.39,14.39,0,0,0-.79,4.09c-.07,2.49,1.51,3.83,3.87,3a66.75,66.75,0,0,0,7.63-3.44,1.7,1.7,0,0,0,.65-1q4.75-15.17,9.45-30.32c.22-.7.42-1.39.69-2.31h-5.71c.76-1.82,1-4,2.1-4.61s3.28-.17,5.19-.17c1-2.82,1.82-5.61,2.91-8.31a4.31,4.31,0,0,1,2-1.93c3.73-1.86,7.51-3.59,11.53-5.49-1.66,5.1-3.32,10.19-5.2,16L283,57.66c-.28,6.25-.56,12.77-.85,19.28s-.59,12.9-.91,20c1.73-1.84,3.09-3.24,4.4-4.68,5.65-6.24,11-12.71,14.84-20.26a26,26,0,0,0,2.34-6.84c.61-3.29-.53-4.62-3.81-5.34-.17,0-.31-.27-.84-.75l10.67-5.57a6.11,6.11,0,0,1,2.44,5.64c-.42,3.23-.89,6.67-2.35,9.5a86.92,86.92,0,0,1-8.78,13.73,257.28,257.28,0,0,1-32.64,33.86,29.78,29.78,0,0,1-13.31,7.13A14.22,14.22,0,0,1,243,121.46C239.43,119.15,238.47,113.27,240.76,110.19Zm-66.33-48a33.44,33.44,0,0,0-4.72-.55c-6.44.28-10.94,3.94-14.6,8.8A50.73,50.73,0,0,0,146.2,90.9a19,19,0,0,0-.34,5.68c.34,3.5,2.84,5.29,6.21,4.3a12.9,12.9,0,0,0,5.56-3c2.57-2.67,5.34-5.53,6.74-8.85C168,80.45,171,71.54,174.43,62.2ZM107.32,83.26c.68,0,.91.07,1.12,0,.87-.11,1.76-.2,2.62-.38,8.49-1.75,14.6-6.42,17.49-14.71.86-2.48,1.23-5.31-1.18-7.34-1.58-1.33-4.62-.66-7.23,1.64C113.82,68.07,110.46,75.46,107.32,83.26Zm107,12,.16-.14a1.74,1.74,0,0,0-.27-.14s-.09.09-.14.14Z"/><path d="M33,80.87a5.4,5.4,0,0,1-1.4.74,54.11,54.11,0,0,1-8,1.45c-10.49.47-16.55-7.08-14-17.25a30.39,30.39,0,0,1,7.69-13.47c8.47-9.08,19.18-14.26,31-17.52a87.57,87.57,0,0,1,22.95-3.16,6.38,6.38,0,0,0,2.61-.83c3.42-1.67,6.8-3.43,10.24-5.08a2.78,2.78,0,0,1,2.28.23l-7.48,6.36c1.9.45,3.29.74,4.66,1.09A32.55,32.55,0,0,1,96.4,39.56c9.31,7.54,9.33,19.06,0,26.71-5.13,4.22-11.32,5.84-17.7,6.94-.58.09-1.16.19-1.73.31-.12,0-.2.17-.36.31,1.66,1,3.3,2,4.89,3,12,7.79,9.75,24.42-.22,30.8-7.64,4.89-16.12,6.12-24.86,5.08-4.91-.58-9.7-2.28-14.54-3.54a11.67,11.67,0,0,1-2.14-1c.75-1.66,1.72-1.75,3.23-1.2,6.38,2.31,12.9,3.09,19.54,1.17a23.69,23.69,0,0,0,16.74-20c.84-7.67-3.7-13-12-14-1.82-.22-3.66-.31-5.57-.46.08-1.69.88-2.26,2.51-2.18,7.31.36,14.07-1.28,20-5.78,4.75-3.63,8.06-8.16,8.51-14.35.46-6.38-2.13-10.9-7.9-13.76-7-3.45-7.9-3.22-12.09,3.17-7,10.57-11.82,22.18-17,33.67-2.41,5.37-4.71,10.8-7.5,16C40.28,105.28,28,114.24,11,116.24a2.36,2.36,0,0,1-1.73-.45,5.91,5.91,0,0,1,1.08-.68,34.41,34.41,0,0,0,19-15.73c4.69-8.25,9.21-16.61,13.28-25.17C49.45,59.9,57.19,46.28,68.56,34.56c-2.84.36-5.72.58-8.53,1.09A63.15,63.15,0,0,0,33,47.05a36.45,36.45,0,0,0-10.5,11.51,28.84,28.84,0,0,0-2.93,7.78c-1.5,7.41,2.57,12.71,10.11,13.59,1.1.13,2.2.23,3.3.35Z"/><path d="M333.13,143.84c-9.86-.47-19.74-.82-29.59-1.46-15.38-1-30.74-2.23-46.12-3.27-24.42-1.65-48.84-3.29-73.28-4.78-17.59-1.08-35.19-1.91-52.79-2.86-1.09-.06-2.19-.21-3.28-.32.69-1.38,1.76-1.53,3.16-1.17a8.32,8.32,0,0,0,2.82.09,35.17,35.17,0,0,1,4.71-.68c7,.2,13.93.5,20.89.86,3.58.19,7.14.6,10.72.84,1.45.1,2.92,0,4.38,0v-.69c-2.65-.26-5.3-.49-7.94-.78-4.72-.52-9.44-1.1-14.16-1.6s-9.61-.91-14.41-1.44a7.19,7.19,0,0,1-3.29-.92c-1-.72-1.76-1.3-3.12-.83-1.13.4-2-.14-2-1.57q11.65,1.16,23.32,2.32c16.81,1.7,33.59,3.55,50.41,5.11,35.36,3.29,70.82,4.63,106.31,5,10.11.12,20.21-.06,30.32-.1a4.71,4.71,0,0,1-4.88,2.2,48.58,48.58,0,0,0-5-.53c-1.48-.14-2.21.46-2.11,2,.09,1.35-.35,2.81,1.91,2.94C331.18,142.31,332.15,143.28,333.13,143.84Zm-154.4-12.48,0-.38h-2.53l0,.38Z"/><path d="M370.44,92c.1.77.41,1.45.19,1.76-6.3,9-15.36,14.21-26.33,11.83-7.26-1.57-10.78-6.9-10.22-14.79,1-14,14.61-30.11,28.34-33.23a33,33,0,0,1,8.12-.69c7.09.2,10.88,5.75,8.73,12.53-1.57,4.94-4.9,8.5-9.17,11.24-6.64,4.24-14.13,5.8-21.82,6.52-1.63.16-2.39.73-2.63,2.26a48.29,48.29,0,0,0-.87,5.43c-.18,4.57,2.13,6.82,6.69,6.81a22.37,22.37,0,0,0,14.19-5.4C367.2,95,368.62,93.63,370.44,92Zm-22.53-9,.54.79c3.07-.92,6.29-1.51,9.18-2.82a20.58,20.58,0,0,0,11.48-12.77c1-3.21.48-6.42-1.31-7.33-2.72-1.39-5.08-.1-7.07,1.63C354.34,68,351,75.41,347.91,83Z"/><path d="M292.84,28.56l-.46,0c-1-1.34-2.15-2.11-3.53-.39l-1.33-.08c-1-1.61-1.89-1.71-3.1-.36l-1.77-.11c-1-1.6-2.23-1.73-3.54-.37l-.89-.05a2.36,2.36,0,0,0-4-.4l-1.32-.08a2.38,2.38,0,0,0-4-.36l-1.33-.09c-1-1.58-2.24-1.7-3.54-.34l-1.33-.07a2.36,2.36,0,0,0-4-.38l-.88-.06a2.36,2.36,0,0,0-4-.38l-1.33-.08c-1-2-2.22-1.55-3.54-.35l-.45,0c-1.55-1.68-2.69-1.79-4-.38l-1.77-.11c-1-1.58-1.9-1.68-3.1-.33l-1.77-.11a2.36,2.36,0,0,0-4-.38l-.88,0c-1-1.65-2.25-1.78-3.55-.36l-1.77-.1a2.34,2.34,0,0,0-4-.37l-1.33-.08a2.36,2.36,0,0,0-4-.37l-1.33-.07a2.34,2.34,0,0,0-4-.36l-1.33-.07a3.19,3.19,0,0,0-4.87-.4L205.59,21a2.36,2.36,0,0,0-4-.33l-1.77-.09c-1.06-1.62-2-1.7-3.55-.31l-16.38-.94a13.59,13.59,0,0,0-.44-8.29c3.8.53,7.59,1.1,11.4,1.58,1.5.19,3,.2,4.54.3l1.33.24,1.33.11c.94,1.45,4.42,2.07,5.71,1,0,0,0-.13,0-.21l.88.09c.59.41,1.14,1.08,1.77,1.18q8.9,1.34,17.82,2.47c.52.07,1.11-.43,1.67-.67l.89.07c.63,1.78,1.56,1.66,2.65.4l.46,0c.63.42,1.23,1.1,1.92,1.22q4.58.78,9.2,1.26c.54.06,1.14-.49,1.71-.75l1.33.12c.48,1.84,1.27,1.56,2.21.32l.89.08c.68,1.58,1.53,2,2.66.37l.88.07c.36.4.68,1.08,1.1,1.15,2.52.4,5.06.7,7.6.91.47,0,1-.53,1.49-.82l1.33.1c.93,1.38,5.71,2.07,7,1,.05,0,0-.14.05-.21l1.33.09c1,1.59,2.22,1.72,3.54.37l1.33.09a2.38,2.38,0,0,0,4,.35l.88.06c1.05,1.64,2.28,1.76,3.55.33l2.21.11a2.34,2.34,0,0,0,4,.35l2.21.12c1.07,1.61,2.28,1.72,3.55.31l2.65.13a2.35,2.35,0,0,0,4,.32l2.21.1a2.73,2.73,0,0,0,4.44.32l3.09.15c1,1.54,5.2,1.77,6.64.37l1.33.07c1.06,1.58,4.4,1.77,5.76.33l4.43.12c.43.39.85,1.1,1.31,1.13a56.69,56.69,0,0,0,5.83,0c.29,0,.56-.52.83-.79l5.76.11c.37.39.74,1.09,1.13,1.11,2.5.1,5,.09,7.51,0,.38,0,.74-.59,1.1-.9l20.37-.26c-.52.56-.94,1.43-1.56,1.6a14.4,14.4,0,0,1-4.13.47c-1.63,0-2.38.29-2.34,2.17s1.09,2.31,2.67,2.3c2.73,0,5.46,0,8.19,0,1.2,0,2.05.27,2.1,1.64L354,34l-1.33-.11-4-.19c-.77-1.52-1.82-1.62-3.1-.28l-1.77-.09c-1-1.63-2.27-1.74-3.55-.34L338,32.89c-1.05-1.6-2.25-1.71-3.55-.34l-1.32-.08a2.36,2.36,0,0,0-4-.38L327.82,32c-1-1.58-2.23-1.7-3.54-.36l-.89-.05c-1-2-2.22-1.57-3.54-.38l-.45,0c-1-1.34-2.16-2.11-3.54-.38l-1.77-.11c-.71-1.56-1.56-2-2.66-.32l-1.77-.12c-1-2-2.21-1.56-3.53-.38l-.46,0c-1.2-1.62-2.6-1.77-4-.41l-1.33-.09c-.85-1.72-1.89-1.73-3.1-.35l-1.32-.09C295.09,27.12,294,27.26,292.84,28.56Z"/><path d="M420.92,62.78,412.82,65c1-1.55,1.47-3,2.48-3.85a10.18,10.18,0,0,1,4.46-2.29,4.37,4.37,0,0,0,3.93-4c.8-4,2.55-6.93,7.08-8,2.72-.64,5.12-2.65,8.18-4.32-1.73,5.29-3.31,10.15-5.07,15.55h16.06c.09,1.85-.58,3.21-2.27,3.56-4.09.84-8.21,1.51-12.34,2.17a22.57,22.57,0,0,1-3.4,0L424,87.62c-.83,2.51-1.69,5-2.44,7.56-1.17,4,.57,6.08,4.69,5.41a32.58,32.58,0,0,0,5.64-1.84,15.62,15.62,0,0,0,1.88-.93l.49.39c-.27.66-.36,1.57-.85,1.93-4.56,3.35-9.3,6.29-15.33,5.82-5.1-.4-7.78-3.13-7.44-8.17a36.33,36.33,0,0,1,1.69-8.16c2.63-8.42,5.43-16.79,8.16-25.18C420.58,64.18,420.63,63.9,420.92,62.78Z"/><path d="M375.25,91c.11.9.17,1.82.33,2.71.69,3.74,2.59,6.63,6.29,7.87s7.47.9,10.58-1.86c2.84-2.51,3.3-5.82,1.06-8.88s-4.86-6.11-7.29-9.17c-5.56-7-4.6-15.53,2.39-21.21a21.06,21.06,0,0,1,22.71-2c1.37.77,1.9,1.52,1.21,3.13-.89,2.09-1.48,4.31-2.24,6.46a17.43,17.43,0,0,1-.77,1.64l-.64-.09c-.11-.79-.23-1.59-.31-2.39-.32-3.18-1.64-5.66-4.86-6.71A9,9,0,0,0,394.2,63a6.38,6.38,0,0,0-.37,8.34c1.87,2.64,4.07,5,6.11,7.56,2.38,2.92,4.89,5.81,5.41,9.71.76,5.8-2,10.13-6.34,13.5-5.47,4.21-11.82,4.68-18.34,3.65a47.23,47.23,0,0,1-7.84-2.23,2.12,2.12,0,0,1-1.13-1.71c.68-3.38,1.55-6.73,2.37-10.09.1-.43.24-.85.36-1.27Z"/><path d="M303,106.22c1.92-5.73,3.75-11.2,5.59-16.68,2.39-7.1,4.8-14.2,7.18-21.31.31-.9.59-1.82.81-2.75.78-3.33.21-4.25-3.16-4.94.14-.33.21-.88.4-.91,5.09-1,10.2-2,15.7-3-1,3.15-1.92,5.82-2.81,8.5,5.55-6.88,12-10.42,21.07-6l-5.45,8.31a7.07,7.07,0,0,0-6.52-3.07,8.88,8.88,0,0,0-6.74,3.77,43.05,43.05,0,0,0-5.25,9.34c-3.07,8.5-5.72,17.15-8.48,25.76a2.36,2.36,0,0,1-2.41,2C309.71,105.46,306.51,105.86,303,106.22Z"/><path d="M129.86,123.27c-.07,1.43.84,2,2,1.57,1.36-.47,2.09.11,3.12.83a7.19,7.19,0,0,0,3.29.92c4.8.53,9.61.93,14.41,1.44s9.44,1.08,14.16,1.6c2.64.29,5.29.52,7.94.78v.69c-1.46,0-2.93.09-4.38,0-3.58-.24-7.14-.65-10.72-.84-7-.36-13.92-.66-20.89-.86a35.17,35.17,0,0,0-4.71.68,8.32,8.32,0,0,1-2.82-.09c-1.4-.36-2.47-.21-3.16,1.17-10.14-.2-20.27-.48-30.41-.59-8-.08-16,0-24,.06l-.45-10.52c11,.36,22,.67,33.07,1.1,3.89.15,7.77.59,11.65.93S125.87,122.89,129.86,123.27Z"/><path d="M333.13,143.84c-1-.56-1.95-1.53-3-1.59-2.26-.13-1.82-1.59-1.91-2.94-.1-1.55.63-2.15,2.11-2a48.58,48.58,0,0,1,5,.53,4.71,4.71,0,0,0,4.88-2.2L382.4,133c0,3.52-.07,7-.1,10.55-3.74.25-7.46.67-11.2.71-9.27.12-18.54.06-27.81.06a14.72,14.72,0,0,1-1.74-.2c-2-2.43-5.5-2.53-6.64-.19Z"/><path d="M179.46,11a13.59,13.59,0,0,1,.44,8.29l-33.32-.57.12-9.81c7.12.3,14.25.52,21.36.93C171.87,10.05,175.66,10.59,179.46,11Z"/><path d="M379.25,35.08c-.05-1.37-.9-1.66-2.1-1.64-2.73,0-5.46,0-8.19,0-1.58,0-2.62-.29-2.67-2.3s.71-2.22,2.34-2.17a14.4,14.4,0,0,0,4.13-.47c.62-.17,1-1,1.56-1.6l26.13-1.75c-.44.59-1.22,1.16-1.26,1.78-.15,2.22-.06,4.45-.06,6.58l2.67.83c-2.54.21-5.08.52-7.62.58C389.2,35.06,384.23,35,379.25,35.08Z"/><path d="M73.17,120.1l.45,10.52-15.94.82,2.65-1.33V125.9c0-3.77,0-3.77-3.41-4.81-.06,0-.1-.1-.14-.16Z"/><path d="M34.64,134.17,17.4,138.44c0-2.12,1.63-4.25,0-6.36a51.06,51.06,0,0,1,15.87-6.86c1.75,1.42,1.38,3.39,1.39,5.26Z"/><path d="M427.49,123.87l13.22-5.76c-.21.82-.38,1.66-.64,2.46-.87,2.68-.17,4.18,2.07,4.37a35.59,35.59,0,0,1-14.65,9.33Z"/><path d="M403.1,141.2l-10.18,1.39a18.27,18.27,0,0,1-.27-1.93c-.1-3-1-6.13,1.23-8.82a23.31,23.31,0,0,1,2.63-.8c2.21-.41,4.43-.73,6.64-1.08Q403.14,135.59,403.1,141.2Z"/><path d="M393.88,131.84c-2.2,2.69-1.33,5.81-1.23,8.82a18.27,18.27,0,0,0,.27,1.93l-10.62.92c0-3.52.07-7,.1-10.55,3.35-.45,6.7-.93,10.06-1.35A5.47,5.47,0,0,1,393.88,131.84Z"/><path d="M427.49,123.87v10.4l-7.56,3c-.43-.35-.82-.92-1.3-1a12,12,0,0,0-2.66.14,42.66,42.66,0,0,1,.09-6.15c.13-.81,1.31-1.45,2-2.19.5-.56,1-1.15,1.45-1.73Z"/><path d="M34.64,134.17v-3.69c0-1.87.36-3.84-1.39-5.26l11.14-2.44c1.66,1.46,2,3.32,1.79,5.42-.16,1.87-.7,3.17-2.81,3.51-.76.13-1.4.9-2.1,1.38Z"/><path d="M146.7,8.9l-.12,9.81-11.84.47c.57-.47,1.59-.91,1.62-1.41a22.62,22.62,0,0,0-.17-6.53c-.15-.68-2.19-.92-3.36-1.38-.13,0-.22-.19-.32-.29Z"/><path d="M448.79,17.65A30.23,30.23,0,0,1,437,26c-.39-.7-1.05-1.37-1.1-2.09-.15-2.11-.06-4.23-.06-6.34l11.47-5.4c.16.75.3,1.5.5,2.23C448.14,15.51,448.47,16.58,448.79,17.65Z"/><path d="M420,31.87l-11.07,1.85a11.88,11.88,0,0,1-.07-9.58l9.74-1.72a4.8,4.8,0,0,1-.06,1.08c-.87,2.88-2.5,5.88,1.35,8C420,31.51,420,31.73,420,31.87Z"/><path d="M419.49,126.3c-.48.58-.95,1.17-1.45,1.73-.67.74-1.85,1.38-2,2.19a42.66,42.66,0,0,0-.09,6.15,12,12,0,0,1,2.66-.14c.48.08.87.65,1.3,1l-9.22,2.43-2.46-.73c.2-3.22.41-6.64.62-10.05Z"/><path d="M435.88,17.6c0,2.11-.09,4.23.06,6.34.05.72.71,1.39,1.1,2.09l-9.57,3.89a13.44,13.44,0,0,1-1.27-3.31,56.16,56.16,0,0,1-.06-5.95Z"/><path d="M129.86,19.5l-9.75,1.13q0-4.59,0-9.16l9.74-1.38Z"/><path d="M408.87,24.14a11.88,11.88,0,0,0,.07,9.58l-7.14.64-2.67-.83c0-2.13-.09-4.36.06-6.58,0-.62.82-1.19,1.26-1.78Z"/><path d="M426.14,20.66a56.16,56.16,0,0,0,.06,5.95,13.44,13.44,0,0,0,1.27,3.31L420,31.87c0-.14,0-.36-.11-.41-3.85-2.08-2.22-5.08-1.35-8a4.8,4.8,0,0,0,.06-1.08Z"/><path d="M56.78,120.93c0,.06.08.14.14.16,3.41,1,3.41,1,3.41,4.81v4.21l-2.65,1.33-5.4.43q-.18-5.22-.37-10.45Z"/><path d="M120.12,11.47q0,4.57,0,9.16l-8.83,1.64-.12-8.07Z"/><path d="M111.16,14.2l.12,8.07-10.65,3.16a7.42,7.42,0,0,1,.44-1.65c.89-1.69.45-2.73-1.41-3.18Z"/><path d="M51.91,121.42q.2,5.24.37,10.45l-11,1.22c.7-.48,1.34-1.25,2.1-1.38,2.11-.34,2.65-1.64,2.81-3.51.18-2.1-.13-4-1.79-5.42Z"/><path d="M442.14,124.94c-2.24-.19-2.94-1.69-2.07-4.37.26-.8.43-1.64.64-2.46l11.31-7.6C449.81,116.26,447,121.29,442.14,124.94Z"/><path d="M408.87,128.88c-.21,3.41-.42,6.83-.62,10.05l2.46.73-7.61,1.54q0-5.61,0-11.24Z"/><path d="M129.86,19.5V10.09l2.65-.52c.1.1.19.24.32.29,1.17.46,3.21.7,3.36,1.38a22.62,22.62,0,0,1,.17,6.53c0,.5-1.05.94-1.62,1.41Z"/><path d="M17.38,132.08c1.65,2.11,0,4.24,0,6.36L4.26,144.57A2.23,2.23,0,0,0,4,144.3,40.47,40.47,0,0,1,17.38,132.08Z"/><path d="M99.66,20.6c1.86.45,2.3,1.49,1.41,3.18a7.42,7.42,0,0,0-.44,1.65l-9.65,5a3.19,3.19,0,0,0-.26-.26A30.28,30.28,0,0,1,99.66,20.6Z"/><path d="M448.79,17.65c-.32-1.07-.65-2.14-.94-3.22-.2-.73-.34-1.48-.5-2.23l8.47-6.57,0,0c-.69,4-3,7.22-5.38,10.36A20,20,0,0,1,448.79,17.65Z"/><path d="M226,17.09c-.56.24-1.15.74-1.67.67q-8.92-1.14-17.82-2.47c-.63-.1-1.18-.77-1.77-1.18Z"/><path d="M242.79,19.33c-.57.26-1.17.81-1.71.75q-4.62-.48-9.2-1.26c-.69-.12-1.29-.8-1.92-1.22Z"/><path d="M354,27.18c-.36.31-.72.89-1.1.9-2.5.08-5,.09-7.51,0-.39,0-.76-.72-1.13-1.11Z"/><path d="M261,21.53c-.5.29-1,.86-1.49.82-2.54-.21-5.08-.51-7.6-.91-.42-.07-.74-.75-1.1-1.15Z"/><path d="M334.91,143.89c1.14-2.34,4.64-2.24,6.64.19Z"/><path d="M338.45,26.85c-.27.27-.54.78-.83.79a56.69,56.69,0,0,1-5.83,0c-.46,0-.88-.74-1.31-1.13Z"/><path d="M269.36,22.42c0,.07,0,.18-.05.21-1.32,1.07-6.1.38-7-1Z"/><path d="M319,26c-1.44,1.4-5.6,1.17-6.64-.37Z"/><path d="M326.05,26.39c-1.36,1.44-4.7,1.25-5.76-.33Z"/><path d="M203.82,14c0,.08,0,.18,0,.21-1.29,1.06-4.77.44-5.71-1Z"/><path d="M309.23,25.47a2.73,2.73,0,0,1-4.44-.32Z"/><path d="M206.92,21a3.19,3.19,0,0,1,4.87.4Z"/><path d="M290.18,24.17a2.34,2.34,0,0,1-4-.35Z"/><path d="M302.58,25.05a2.35,2.35,0,0,1-4-.32Z"/><path d="M213.12,21.5a2.34,2.34,0,0,1,4,.36Z"/><path d="M218.43,21.93a2.36,2.36,0,0,1,4,.37Z"/><path d="M233.93,23.25a2.36,2.36,0,0,1,4,.38Z"/><path d="M244.56,24.18c1.29-1.41,2.43-1.3,4,.38Z"/><path d="M253.86,25a2.36,2.36,0,0,1,4,.38Z"/><path d="M258.73,25.46a2.36,2.36,0,0,1,4,.38Z"/><path d="M329.15,32.09a2.36,2.36,0,0,1,4,.38Z"/><path d="M223.75,22.38a2.34,2.34,0,0,1,4,.37Z"/><path d="M201.6,20.62a2.36,2.36,0,0,1,4,.33Z"/><path d="M274.23,26.78a2.36,2.36,0,0,1,4,.4Z"/><path d="M268.92,26.34a2.38,2.38,0,0,1,4,.36Z"/><path d="M295.94,24.6c-1.27,1.41-2.48,1.3-3.55-.31Z"/><path d="M284,23.71c-1.27,1.43-2.5,1.31-3.55-.33Z"/><path d="M279.55,23.32a2.38,2.38,0,0,1-4-.35Z"/><path d="M301.69,29.44c1.38-1.36,2.78-1.21,4,.41Z"/><path d="M340.22,33c1.28-1.4,2.5-1.29,3.55.34Z"/><path d="M196.28,20.22c1.6-1.39,2.49-1.31,3.55.31Z"/><path d="M229.5,22.85c1.3-1.42,2.53-1.29,3.55.36Z"/><path d="M334.46,32.55c1.3-1.37,2.5-1.26,3.55.34Z"/><path d="M279.11,27.23c1.31-1.36,2.51-1.23,3.54.37Z"/><path d="M264.05,25.91c1.3-1.36,2.49-1.24,3.54.34Z"/><path d="M274.23,22.88c-1.32,1.35-2.52,1.22-3.54-.37Z"/><path d="M315.86,30.81c1.38-1.73,2.49-1,3.54.38Z"/><path d="M324.28,31.64c1.31-1.34,2.5-1.22,3.54.36Z"/><path d="M249,24.59c1.32-1.2,2.55-1.65,3.54.35Z"/><path d="M288.85,28.15c1.38-1.72,2.49-.95,3.53.39Z"/><path d="M239.69,23.74c1.2-1.35,2.09-1.25,3.1.33Z"/><path d="M306.13,29.88c1.32-1.18,2.56-1.65,3.53.38Z"/><path d="M319.85,31.21c1.32-1.19,2.56-1.65,3.54.38Z"/><path d="M284.42,27.71c1.21-1.35,2.11-1.25,3.1.36Z"/><path d="M345.54,33.44c1.28-1.34,2.33-1.24,3.1.28Z"/><path d="M297.26,29c1.21-1.38,2.25-1.37,3.1.35Z"/><path d="M292.84,28.56c1.19-1.3,2.25-1.44,3.1.35Z"/><path d="M311.43,30.38c1.1-1.68,1.95-1.24,2.66.32Z"/><path d="M249.88,20.22c-1.13,1.6-2,1.21-2.66-.37Z"/><path d="M229.5,17.56c-1.09,1.26-2,1.38-2.65-.4Z"/><path d="M246.33,19.77c-.94,1.24-1.73,1.52-2.21-.32Z"/><path d="M196.73,13.11l-1.33-.24Z"/><path d="M352.62,33.91,354,34Z"/><path d="M91,30.46l-.42.18c.06-.15.11-.3.16-.44A3.19,3.19,0,0,1,91,30.46Z"/><path d="M455.82,5.63a.87.87,0,0,1,.07-.17s.07,0,.11,0l-.21.16Z"/><path d="M178.73,131.36H176.2l0-.38h2.53Z"/><circle cx="449.52" cy="131.45" r="3.08"/></svg>