<svg id="Layer_1" data-name="Layer 1" xmlns="http://www.w3.org/2000/svg" viewBox="0 0 766 150"><path d="M384.82,7.33q152.31,0,304.63.06c29.93,0,52.23,13.39,64.77,40.68,18.82,41-8.93,89.35-53.69,94.53a99.42,99.42,0,0,1-11.31.61q-306.55,0-613.13,0c-33.43,0-60.25-19.91-68.61-50.89C-3.37,52.08,26.08,10.71,67.69,7.8q6.24-.45,12.5-.45Q232.5,7.31,384.82,7.33Zm-2,2.72q-153.24,0-306.46,0a94.45,94.45,0,0,0-11.89.64c-35,4.44-60.7,37.68-56.11,72.53A65.59,65.59,0,0,0,73.89,140.5q308.83,0,617.69,0a70.8,70.8,0,0,0,9.2-.57c48.78-6.43,73.3-63.21,44.22-102.73C731.42,18.73,712.82,10,689.86,10Q536.34,10.13,382.81,10.05Z"/><path d="M129,67c-4.52,0-9.08.1-13.63-.1-.73,0-1.74-1.34-2-2.24-4.91-15.15-15-24.68-30.7-27.89-16.5-3.38-33.6,4.9-41.69,19.87a39,39,0,0,0,6.17,45.64c21.48,21.94,57.33,13,66.15-16.53.49-1.66,1.15-2.41,3-2.34,4.25.15,8.51,0,12.77,0-1,18.29-19.47,44.92-50.88,46.24-31.62,1.33-57.6-23.52-57.35-54.89.26-31,26.63-56.2,59.13-54C104.18,22.48,130.91,47.11,129,67Z"/><path d="M75.51,109.51a34.21,34.21,0,1,1,34.43-34.1A34.4,34.4,0,0,1,75.51,109.51ZM98,75.64a22.46,22.46,0,0,0-44.91-.7,22.63,22.63,0,0,0,21.7,22.7A22.4,22.4,0,0,0,98,75.64Z"/><path d="M389.36,75.89l16.28,20c-6.06,0-11.47.07-16.87-.07-.73,0-1.6-1-2.12-1.73-3.28-4.71-6.67-9.37-9.64-14.27-1.79-3-4-3.85-7.58-2.88V95.69h-17.5V51c.18-.12.33-.32.49-.32,13,.18,26,0,39,.72,7.85.45,12,5.81,11.6,12.72-.31,4.95-4.11,9.19-9.68,10.78C392.18,75.22,391,75.47,389.36,75.89ZM369.5,68c2.1,0,4.06.09,6,0a73.14,73.14,0,0,0,10.6-.95c1.35-.28,2.85-2.07,3.29-3.48.21-.7-1.72-2.89-2.85-3-5.62-.68-11.29-.9-17.05-1.28Z"/><path d="M508.44,50.71h17.41v8.95c0,5.25-.27,10.51,0,15.74.79,12.86-8,19.94-18.53,20.78a99,99,0,0,1-19.85-.49C477.93,94.5,471.87,88,471.38,78.4c-.45-8.88-.12-17.8-.12-26.71a4,4,0,0,1,.32-1h17.19V57c0,7,0,14.06,0,21.09,0,4.27,2.1,6.84,6.34,7.72a17.3,17.3,0,0,0,5.6.31c5.38-.68,7.65-3.31,7.7-8.73.06-7.72,0-15.44,0-23.16Z"/><path d="M236.6,85.83h30.15v9.83H219V50.75h46.76V60h-29v7.55h22.93v9h-23Z"/><path d="M461.35,85.69v10H413.76V50.75h46.75v9.37H431.22v7.33h22.9V76.6h-22.9v9.09Z"/><path d="M642.64,50.79v9.26H613.1v7.41H636V76.6H613.11v9.08h30.06v10h-47.5V50.79Z"/><path d="M584.09,63.23c-4.93.23-9.87.51-14.81.61-.59,0-1.39-.87-1.76-1.52-2.18-3.82-8.79-5.67-12.54-3.26a3.77,3.77,0,0,0-1.67,2.78,3.53,3.53,0,0,0,2.2,2.38c3.72,1,7.57,1.56,11.31,2.54,4,1.06,8.15,2,11.89,3.69C588,74.77,589.33,85,581.15,91.23a28.5,28.5,0,0,1-11.07,4.63,49.27,49.27,0,0,1-23.3-.8A15.82,15.82,0,0,1,534.84,81c5.12-.23,10.23-.51,15.33-.6.55,0,1.35.93,1.66,1.61,2.43,5.36,10.19,7.86,15.1,4.61,1.09-.73,2.39-2.44,2.21-3.46a5.47,5.47,0,0,0-2.85-3.68c-3.42-1.24-7.12-1.72-10.62-2.77-4.43-1.34-9.1-2.38-13.11-4.56C535,68,534.89,58.53,542.24,54a26.82,26.82,0,0,1,9.67-3.49c7.79-1.19,15.66-1.36,23.25,1.35C580.73,53.87,583.91,58,584.09,63.23Z"/><path d="M343,66.63c-5.22,0-10.06.05-14.91-.06a3,3,0,0,1-1.94-1.35c-2.91-4.4-7.43-6-13.32-4.54-4.51,1.1-7.28,4.36-7.69,9.38a37.78,37.78,0,0,0,0,6.81c.52,5.48,3.24,8.41,8.37,9.3,5.9,1,10.43-1,12.74-5.82.43-.89.8-1.81,1.25-2.82h15.69c-.52,9-7,16.2-16.55,18.22a49.82,49.82,0,0,1-21.87-.27C294,93,287.37,84.56,287.29,73.67,287.2,61.81,293,54.1,304.47,51.24c8.63-2.16,17.35-2.22,25.82.74C337.09,54.35,340.8,59.63,343,66.63Z"/><path d="M649.34,50.72H702.6v11H684.75v34H667.24V61.72h-17.9Z"/><path d="M183.11,50.79V84.87h27.4V95.71h-44.7V50.79Z"/><path d="M724.44,49.15a9.92,9.92,0,1,1-10.12,9.62A10,10,0,0,1,724.44,49.15Zm-.15,1.32a8.58,8.58,0,0,0-8.69,8.61A8.7,8.7,0,0,0,733,59,8.55,8.55,0,0,0,724.29,50.47Z"/><path d="M59.71,75.21a16.05,16.05,0,0,1,15.79-16c8.61-.11,16,7.37,16,16.14a15.89,15.89,0,1,1-31.78-.16Z"/><path d="M725.84,59.63l3,4.66c-3.37-.5-3.38-5.86-8-4.49-.12,1.48-.26,3.09-.39,4.71l-1,0c-.46-3.5-.13-7.06-.17-11a34.84,34.84,0,0,1,5.83.09A4,4,0,0,1,728,55.58c.29.89-.58,2.22-1.08,3.28C726.74,59.24,726.15,59.42,725.84,59.63Zm-5-.66c2.23-.63,4-1.08,5.75-1.7.15-.05.06-1.69-.18-1.76-1.74-.53-3.55-.86-5.57-1.3Z"/></svg>