<svg id="Layer_1" data-name="Layer 1" xmlns="http://www.w3.org/2000/svg" viewBox="0 0 150 150"><path d="M69.67,2.5H80.23a3.75,3.75,0,0,0,.79.23,71.84,71.84,0,0,1,4.22,142.7c-13.16,1.86-26,.49-38.11-4.93-24.61-11-39.1-30-43.32-56.69-.22-1.42-.43-2.84-.64-4.26V69.22a2.92,2.92,0,0,0,.22-.69A71.82,71.82,0,0,1,65.53,3.13C66.91,3,68.29,2.71,69.67,2.5Zm59.66,74.65c-.76,24.27-20.22,49.31-50.54,51.51A54.25,54.25,0,0,1,20.77,80,52.26,52.26,0,0,1,31.52,41.51c11.64-15.12,27.27-22.09,46.3-21.72V14.33A60.14,60.14,0,1,0,135,71.67H92.23v5.48ZM72.19,42.82v62.93H92v-5.63H77.84V42.82ZM60.68,51.47A8.64,8.64,0,1,0,52,60,8.66,8.66,0,0,0,60.68,51.47Z"/></svg>