<svg id="Layer_1" data-name="Layer 1" xmlns="http://www.w3.org/2000/svg" viewBox="0 0 594 150"><path d="M158.65,51C160,72.06,144,93.86,115.89,94,90,94,72.26,76.33,72.23,50.73,72.2,25.94,89.74,8.18,115.41,8,145.26,7.74,160.29,31.23,158.65,51Zm-18.59-.2c0-6.89-2.1-12.8-6-17.08-9.33-10.28-26.21-10.89-35.9-1.31s-9.46,28.76.56,37.67c8.06,7.18,17.51,8.09,27,4.12C135.84,70,140.06,61.54,140.06,50.83Z"/><path d="M412.3,92.91c2.51-6.52,4.72-12.26,6.92-18,8-20.94,16.11-41.87,24-62.85.88-2.32,2-3.18,4.45-3.1,5.21.18,10.44-.05,15.65.15,1.09,0,2.22,1.07,3.18,1.84.44.35.5,1.17.73,1.78l30.14,79.9c-1.83.11-3.38.27-4.93.28-4,0-8.05-.12-12.07.07-2.15.1-3.05-.77-3.69-2.66-1.48-4.42-3-8.83-4.84-13.11a4.47,4.47,0,0,0-3.21-2.28c-9.56-.18-19.13-.05-28.7-.14-2,0-2.86.8-3.47,2.61-1.54,4.51-3.21,9-5,13.41-.33.83-1.29,2-2,2C424.05,93,418.54,92.91,412.3,92.91Zm53.3-34c-3.83-10.12-7.37-19.45-10.9-28.79l-.84.14c-3.56,9.44-7.11,18.88-10.8,28.65Z"/><path d="M400.86,15l-8.72,14.51C386,25.94,379.59,23.79,372.73,24a31.2,31.2,0,0,0-8.83,1.76,6.26,6.26,0,0,0-4.36,5.93,6.25,6.25,0,0,0,3.93,6.55c3.57,1.49,7.43,2.3,11.1,3.56,6,2.08,12.5,3.44,17.88,6.62,14.77,8.74,14,32.72-2.32,41.75-9.25,5.12-19.05,5.39-29.12,3.91a49.86,49.86,0,0,1-20-7.24c-1.83-1.19-2.27-2.24-1.05-4.16,2.44-3.84,4.69-7.8,7.13-11.9A21.65,21.65,0,0,1,349.53,72c7.94,5.56,16.88,6.76,26.14,5.39a13.77,13.77,0,0,0,7.1-4.1c3.11-3.2,1.6-8.48-3.08-10.76-3.27-1.59-6.93-2.42-10.45-3.48-4.36-1.31-8.86-2.22-13.1-3.81-14.83-5.56-20.09-23.79-10.82-36.71,5-6.94,11.88-10.48,20.12-11.16,11.18-.92,22.16,0,32.26,5.58C398.72,13.55,399.69,14.22,400.86,15Z"/><path d="M580.51,80.13c-14.13,17-46.38,18.42-63.1,2.36C500.24,66,500.21,35,518.07,18.78s48.27-13.39,62.32,2.8L567.3,33.69c-1.66-1.28-3.07-2.45-4.56-3.51-11.44-8.19-28.64-5-35.59,6.61C519.26,50,523.77,68,536.87,73.84c9.76,4.38,19.34,3.39,27.75-3.63,2.11-1.76,3.36-2,5.35.05C573.29,73.67,576.91,76.79,580.51,80.13Z"/><path d="M245.36,9.16c-3,8.49-5.75,16.55-8.57,24.61-6.48,18.5-13,37-19.38,55.51-.94,2.74-2.27,3.74-5.13,3.62a99.11,99.11,0,0,0-13.35.12c-3.25.3-4.38-1.22-5.27-3.83-5.23-15.26-10.54-30.5-15.8-45.75q-5.31-15.36-10.55-30.73c-.35-1-.66-2-1.18-3.66,6.25,0,12.16-.12,18.06.14.83,0,1.93,1.78,2.32,2.93,6,17.64,11.88,35.31,17.81,53,.44,1.31,1,2.59,1.77,4.66.82-1.93,1.43-3.13,1.86-4.39,6-17.62,12.13-35.23,18-52.91.88-2.66,2.11-3.48,4.79-3.36C235.39,9.3,240.07,9.16,245.36,9.16Z"/><path d="M262.23,92.73V9.28h57.34V25.74c-1.16.06-2.41.18-3.66.18-10.55,0-21.09.1-31.64,0-2.86,0-4,.63-4,3.75.14,14.33.11,28.67,0,43,0,2.56.83,3.35,3.35,3.32,11.2-.1,22.4.07,33.59-.11,3.21,0,4.14,1,3.95,4.07-.26,4.19-.06,8.42-.06,12.81Z"/><path d="M64.81,92.8H12.93V9.33H30.6V75.55c1.71.14,3.06.35,4.41.35,8.7,0,17.39.1,26.08,0,2.72,0,4,.6,3.78,3.61C64.63,83.79,64.81,88.13,64.81,92.8Z"/><path d="M295.66,40.64h16.8V60.79h-16.8Z"/><path d="M12.92,135.49v-7c0-6.41,0-12.82,0-19.23,0-1.66.32-2.73,2.3-2.64,3.7.15,7.41,0,11.09.34,5.56.52,9.81,5.83,10.31,12.49.65,8.81-3.77,14.32-12.6,15.4C20.55,135.32,17.06,135.28,12.92,135.49Zm3.65-14.61h0v5.2c0,5.84,0,5.84,5.87,5.49s9.77-4.14,10-9.82c.33-9.91-6.22-12.13-14-11.7-.64,0-1.64,1.52-1.71,2.39C16.43,115.24,16.57,118.06,16.57,120.88Z"/><path d="M109.74,114.85c0,7.65.21,15.21-.17,22.74a6.13,6.13,0,0,1-3.64,4.4,34.48,34.48,0,0,1-10.16.89c-2.22-.07-2.89-1.63-1.15-3.75,3.41.73,7.2,2.42,10.17-.88,1.15-1.26,1.49-3.26,2-4.59-3.36.26-6.34,1.2-8.93.56-6.33-1.57-7.3-7.2-6-13.83.77-3.83,5.37-7.79,11.69-5.64C105.54,115.4,107.86,114.85,109.74,114.85ZM95.35,124.1c0,4.13,2.42,7.33,5.71,7.44,3,.09,5.55-3.17,5.53-7.22,0-4.25-2.21-6.75-5.85-6.71C97.65,117.65,95.38,120.38,95.35,124.1Z"/><path d="M181.25,135.8l-4.15-1.74a45.27,45.27,0,0,1-7.2,1.2c-3.52.05-6.8-3.24-7.14-6.76a46.16,46.16,0,0,1-.1-5.52c.19-6.68,6.14-10.44,12.27-7.79l2.74,1.17v-9.27l3.58-.25Zm-3.58-11c0-4.12-2.24-7-5.53-7.09s-6.09,3.25-6.12,7.1,2.49,7,5.71,7C175.29,131.89,177.64,129.11,177.67,124.8Z"/><path d="M550.41,128.46c.64.85,1.17,1.53,1.79,2.34-1.93,3.1-5.12,3.9-8.27,4.49-7.09,1.32-13.78-2-16.08-8.64-2.39-6.88-1.17-13.61,5-18,5.16-3.65,14-3,18.58,1.32l-1.72,2.51c-8.91-3.58-13.59-3.1-16.83,1.65a11.75,11.75,0,0,0,.8,14.19C537.77,132.86,542.33,132.94,550.41,128.46Z"/><path d="M222.16,135.53c-6.45-.14-11.13-4.7-11-10.74a10.82,10.82,0,0,1,10.92-10.59c6.74.27,11.11,4.73,10.94,11.16A10.45,10.45,0,0,1,222.16,135.53Zm0-3.62a7.1,7.1,0,1,0-.22-14.19c-3.67,0-6.76,3.49-6.67,7.43A6.8,6.8,0,0,0,222.11,131.91Z"/><path d="M553.51,124.77c.09-6.15,4.47-10.65,10.33-10.63,6.47,0,11.27,4.55,11.23,10.57-.05,6.67-4.41,10.78-11.29,10.64C557.63,135.22,553.42,130.88,553.51,124.77Zm10.83-7.2a7.31,7.31,0,0,0-7.08,7.41c0,3.69,3.14,7.07,6.63,7.2a7.54,7.54,0,0,0,7.35-7.24C571.21,121.24,567.78,117.58,564.34,117.57Z"/><path d="M120.8,135.15h-4.09V115c2.19-.74,3.8-.71,3.56,3.23,3.08-3.45,6.35-4.29,10.09-3.58,2.43.45,4.08,1.7,4.24,4.2.36,5.38.54,10.77.8,16.29h-4.49c0-3.89,0-7.65,0-11.41,0-4.42-1-5.92-3.74-6-2.93,0-6.21,3.09-6.33,6.32C120.7,127.67,120.8,131.25,120.8,135.15Z"/><path d="M496.83,125.26c1.56,6.31,4.89,8,10.49,5.94,2.84-1,2.84-1,3.86,1.58-5.07,3.83-11.68,3.58-15.56-.6a11.34,11.34,0,0,1-.05-14.86,9.46,9.46,0,0,1,10.68-2.52,8.49,8.49,0,0,1,5.43,7.75c.11,1.93-.49,2.78-2.51,2.74C505.18,125.2,501.18,125.26,496.83,125.26Zm10.89-3.21c-.45-2.55-1.6-4.25-4.27-4.51-3.06-.3-5.09,1-6.33,4.51Z"/><path d="M59.06,125.19H45c.18,5.12,3.78,7.61,8.77,6.46a17.19,17.19,0,0,1,2.45-.82,8.89,8.89,0,0,1,2.45.58c-.36.8-.49,1.91-1.11,2.37-6,4.49-15.57.49-16.78-6.93S45.21,113,52,114.27C57.14,115.23,60,119.37,59.06,125.19ZM44.7,122.55c3,0,5.29.14,7.58-.06,1-.09,1.92-.88,2.88-1.35-.7-1-1.16-2.45-2.13-3C50.14,116.36,47.1,117.78,44.7,122.55Z"/><path d="M143.81,125.27c.9,5.43,4.25,7.68,8.68,6.45a25.75,25.75,0,0,1,3-1.11,2.35,2.35,0,0,1,2,.78,2.24,2.24,0,0,1-.5,2.12,10.94,10.94,0,0,1-10.54,1.37c-3.48-1.26-6.07-3.8-6.54-7.82-1.05-8.93,4.4-14.23,12.65-12.31,3.65.85,6.75,5.35,5.86,8.94-.17.7-1.67,1.47-2.59,1.51C151.88,125.36,147.9,125.27,143.81,125.27Zm.07-3h10.51c-.2-2.73-1.34-4.47-4.23-4.7C147.07,117.32,145.12,118.69,143.88,122.26Z"/><path d="M472.82,135.11l-3.05.21c-.23-1-.43-1.9-.66-2.87-.47.16-.78.23-1.06.36-1.82.84-3.59,2.24-5.47,2.43-5.5.56-7.35-1.12-7.61-6.64-.21-4.52,0-9.06,0-13.74h3.76c0,4.37-.06,8.59,0,12.79.07,3.74,2.94,5.38,6.23,3.52a7.28,7.28,0,0,0,3.93-6.66v-9.62h3.95Z"/><path d="M312.8,125.18c1.3,6.23,5.26,8.1,10.76,6,.92-.35,2.15.15,3.23.26-.63.92-1.06,2.27-1.94,2.68a11.4,11.4,0,0,1-12.26-1c-3.87-2.8-4.13-7-3.45-11.15.77-4.74,5.84-8.3,10.52-7.68,5.42.7,8.19,4.33,7.81,10.89Zm.42-2.82h10.21c.08-3.32-1.88-4.61-4.54-5S314.06,119,313.22,122.36Z"/><path d="M381.07,114.82h3.15V135c-2.06.56-3.8.78-3.7-1.73-2.66.73-5.08,1.77-7.57,2-3.78.3-6.1-1.64-6.33-5.39-.3-4.84-.08-9.72-.08-14.9h3.69c0,3.71-.2,7.38.07,11,.18,2.39-.34,5.58,3.59,5.83a6,6,0,0,0,6.28-5.37C380.75,122.74,380.78,118.94,381.07,114.82Z"/><path d="M409.53,135.16h-3.16V115.05c2.29-.89,3.69-.45,3.74,1.2,3-.58,5.82-1.57,8.67-1.57,3.65,0,5.16,1.6,5.32,5.24.23,5,.06,10,.06,15.2l-3.57.18c0-4,.07-7.81,0-11.58-.06-2.5,0-5.23-3.42-5.76a6.17,6.17,0,0,0-6.67,4.88C409.92,126.79,409.84,130.81,409.53,135.16Z"/><path d="M350.56,110v9.66c2.48,0,4.92-.07,7.35,0s2.37.16,1.94,3.27h-9.42v12.21h-3.72V124.46c0-5,0-10,0-15,0-1.87.49-2.79,2.56-2.72,3.57.12,7.16,0,10.73,0,2.19,0,2.19.11,2,3.12Z"/><path d="M77.61,115.76l-1.64,3a28.5,28.5,0,0,0-5.59-.94,3.85,3.85,0,0,0-2.61,1.94c-.22.38.83,1.83,1.61,2.34,1.71,1.12,3.64,1.91,5.43,2.92,2,1.14,3.8,2.87,2.77,5.2-.82,1.87-2.56,4.29-4.24,4.59-2.78.51-5.85-.38-8.74-1-.53-.11-.78-1.57-1.16-2.41a9.46,9.46,0,0,1,2.69-.57c1.88.15,3.73.72,5.6.79.57,0,1.55-1,1.66-1.61a2.63,2.63,0,0,0-1-2.12,45.29,45.29,0,0,0-4.84-2.65c-2.73-1.41-4.55-3.34-3.89-6.7.46-2.37,3.22-4.44,6.51-4.33C72.44,114.36,74.7,115.15,77.61,115.76Z"/><path d="M306.54,109.22c-1.6.82-3,1.22-4,2.12-1.75,1.7-1.13,3.21,1.3,3.68,2.11.41,2.11.41,2.05,3.12l-4.2.42v16.53h-4.29c0-4.56.1-9.08-.07-13.59-.05-1.14-1.13-2.21-1.43-3.38a5.62,5.62,0,0,1,0-3.07c.42-1.21,1.57-2.19,1.91-3.41a6.68,6.68,0,0,1,5.27-5.1C305.77,105.88,306.86,106.73,306.54,109.22Z"/><path d="M266.14,107l3.44-.17v18.92c0,5.93,0,5.93,6.11,5.93h6.64v3.46H266.14Z"/><path d="M208.79,106.68l.27,2.69c-1.38.53-2.78.73-3.68,1.51s-1,2-1.45,3.05a7.66,7.66,0,0,0,2.47,1c2.23.05,2.94,1,2.18,3.21l-4.71.41v16.51l-3.77.22c0-4.88.09-9.52-.07-14.15,0-1-1-2-1.44-3a9.93,9.93,0,0,1-.56-2.44c2.45-.78,1.93-3.09,2.55-4.78C201.79,107.63,204.61,106.09,208.79,106.68Z"/><path d="M445.22,114.23c1.43,1.75,5-.69,4.7,2.79-.07.78-2.8,1.31-4.55,2.07,0,2.76-.44,6.06.17,9.15.33,1.64,2.48,2.91,3.81,4.35l.85-.59v3c-5.68.48-8.47-1.84-8.66-7.07-.08-2.06,0-4.12-.08-6.17-.06-1.49.63-3.43-1.95-3.72a8.28,8.28,0,0,1,0-2.72c2.4-.45,1.7-2.3,2-3.79.19-.86,1.17-1.55,1.79-2.31a10.57,10.57,0,0,1,1.7,2.43A8,8,0,0,1,445.22,114.23Z"/><path d="M394,114.61c.19,1.41.32,2.35.43,3.15l7.06-3.94c.4,2.7.92,4-1.54,4.72-3.31,1-5,3.69-5.11,7.18-.09,3,0,6.05,0,9.33h-4.05V114.92Z"/><path d="M241.1,135.15h-2.94v-20c2.56-1.45,3.5-.07,3.73,1.85l7.17-3.06c.09,2,.14,3,.19,4C238.45,120,243.2,129.05,241.1,135.15Z"/><path d="M482.57,135.15h-3V115c2.09-.64,3.74-.67,3.52,2.71a21.67,21.67,0,0,1,3.38-2.39,16.59,16.59,0,0,1,3.63-.7v3.35C479.94,120.37,484.29,129,482.57,135.15Z"/><path d="M286.43,114.86h3.83v20.29h-3.83Z"/><path d="M86.22,135.15H82.73V114.88h3.49Z"/><path d="M434,135.14H430.5V114.88H434Z"/><path d="M291,110.23h-4.58l-.19-3.35c1.22,0,2.5-.37,3.22.1S290.33,108.78,291,110.23Z"/><path d="M430.52,109.92c-.15-1.39-.93-3.22,1.65-3,.7.06,1.32,1.13,2,1.74l-2.69,2.27C431.15,110.57,430.84,110.24,430.52,109.92Z"/><path d="M82.86,106l3.53,2.46c-.61.67-1.16,1.81-1.85,1.9C82,110.66,82.52,108.85,82.86,106Z"/><path d="M580,135.64l-2.07-1.94,1.52-1.52,1.72,2.48Z"/></svg>