<svg id="Layer_1" data-name="Layer 1" xmlns="http://www.w3.org/2000/svg" viewBox="0 0 428 150"><path d="M309.08,5h11.69a6.76,6.76,0,0,0,.89.11c9.52.14,19,.51,28.5,1.4,4.31.4,8.63.77,12.91,1.38,5.5.79,11,1.69,16.44,2.77a112.68,112.68,0,0,1,25.34,7.89,45.31,45.31,0,0,1,13.74,9.17c6.12,6.26,7.56,14,4.11,22a38.44,38.44,0,0,1-6.47,10,89.75,89.75,0,0,1-16.92,14.69,224.14,224.14,0,0,1-34,18.93l-1.3.57a10.58,10.58,0,0,0,3.13-5.62,21.46,21.46,0,0,0,.4-3.83c.06-3.87,0-7.73,0-11.6,0-.75-.24-.91-.94-.9-4.34,0-8.67,0-13,0-1.63,0-1.63,0-1.63,1.66v4.85h4.44c0,2.49,0,4.88,0,7.26A3.5,3.5,0,0,1,354.28,89c-3.48,1.65-6.78-.38-6.79-4.19q0-9.92,0-19.82a10.2,10.2,0,0,1,.23-2.28c.55-2.32,2.83-3.52,5.45-2.93a3.71,3.71,0,0,1,3.14,3.68c0,.93.05,1.87.05,2.8,0,.47.15.69.67.68,3.26,0,6.53,0,9.79,0,.57,0,.72-.25.69-.74,0-1,0-2.09-.1-3.13-.28-5.19-3-8.8-8-10.33a25.09,25.09,0,0,0-13.56-.31c-5.83,1.43-9.09,5.25-9.22,11.24-.18,7.4-.15,14.81,0,22.21.1,5.12,2.79,8.64,7.64,10.28a26.35,26.35,0,0,0,6.18,1.16,56.11,56.11,0,0,0,6.12-.11c-.06,0-.31.15-.56.25-2.68,1.11-5.35,2.24-8.05,3.32a548.42,548.42,0,0,1-65.12,21c-15.92,4.14-32,7.79-48.15,10.71q-15.67,2.82-31.43,5.22C194.62,139,186,140,177.31,141c-6.72.77-13.46,1.38-20.21,1.93q-8.92.74-17.89,1.15c-7.07.31-14.14.55-21.22.65-11.25.16-22.5-.05-33.72-.93-6.69-.53-13.36-1.22-20-2A169.72,169.72,0,0,1,44,138.21,103.38,103.38,0,0,1,20.3,130a41.4,41.4,0,0,1-11-7.81c-6.28-6.47-7.65-14.22-4-22.45a39.1,39.1,0,0,1,6.27-9.51A90.53,90.53,0,0,1,29,75.13,216.22,216.22,0,0,1,60.18,57.66c2-.94,4-1.85,6.19-2.86-.64.78-1.18,1.36-1.63,2a11.92,11.92,0,0,0-1.94,6.6c-.14,3.38.72,6.47,3.35,8.75a45.13,45.13,0,0,0,5.49,4c2.36,1.49,4.89,2.73,7.25,4.21a14,14,0,0,1,3.22,2.77c1.51,1.79,1.17,5.13-.56,6.31a5.12,5.12,0,0,1-5.18.31c-1.61-.71-2.07-2.15-2-3.81,0-1.25,0-2.5,0-3.76H62.6c0,1.74-.14,3.42,0,5.08a10.45,10.45,0,0,0,6.71,9.27A23.62,23.62,0,0,0,75,98a24.22,24.22,0,0,0,11.36-1c3.78-1.32,6.5-3.76,7.26-7.78A32.69,32.69,0,0,0,94,82.39a8.77,8.77,0,0,0-3-6.29,29.11,29.11,0,0,0-4.28-3.31c-2.42-1.5-5-2.73-7.44-4.2a27,27,0,0,1-4.18-3c-1.26-1.12-1.18-2.71-.76-4.22a3.25,3.25,0,0,1,2.82-2.31c2.76-.52,4.72,1,4.93,3.74.05.68,0,1.37,0,2.06,0,.23,0,.46.06.69h10.9c0-1.31.06-2.57,0-3.82a9.44,9.44,0,0,0-6.38-8.91,22.11,22.11,0,0,0-8.64-1.3c-1.49,0-3,.16-4.57.25l.44-.2C80.64,49,87.3,46.21,94.06,43.75a557.73,557.73,0,0,1,62.13-18.44c10.89-2.58,21.84-4.9,32.8-7.12,8.18-1.66,16.42-3.05,24.65-4.41,6.48-1.07,13-2,19.5-2.85q9.12-1.23,18.27-2.24,8.25-.9,16.53-1.53c7-.55,14-1.06,21-1.42,6.16-.32,12.33-.4,18.5-.59C308,5.13,308.54,5.05,309.08,5ZM169.67,85.94h-.13c0-.2-.13-.39-.16-.59L167.7,74.89Q166,64.27,164.28,53.66c-.1-.68-.36-.83-1-.83q-8.1,0-16.21,0c-.63,0-.86.16-.87.83q-.21,11.06-.48,22.11-.22,9.9-.44,19.81c0,.29,0,.58,0,.87h11c.09-13,.19-25.91.28-38.83l.16,0Q160.38,77,164,96.51c3.64,0,7.15,0,10.66,0,.2,0,.53-.34.58-.56.55-2.79,1.07-5.59,1.59-8.39q2.26-12.14,4.51-24.27c.35-1.9.71-3.79,1.06-5.68h.15q.13,19.44.28,38.87h11c-.31-14.56-.63-29-.94-43.62h-1c-5.32,0-10.64,0-16,0-.79,0-1,.3-1.11,1-.5,3.27-1.05,6.54-1.57,9.8l-2.88,17.83C170.17,82.94,169.92,84.44,169.67,85.94Zm145.19.83-.13,0c-.07-.23-.15-.45-.21-.68q-4.77-16.22-9.5-32.43c-.19-.63-.44-.87-1.12-.86q-7.2,0-14.4,0c-.83,0-1.06.21-1.05,1q0,20.59,0,41.2V96h10.84c-.2-11.7-.39-23.34-.58-35a1.72,1.72,0,0,1,.44.81q5.1,16.71,10.17,33.43c.18.59.41.83,1.06.82q7,0,14,0c.61,0,.86-.13.86-.81q0-20.81,0-41.61c0-.6-.17-.81-.79-.81q-4.69,0-9.38,0c-.64,0-.79.22-.77.81q.1,3.7.16,7.4L314.86,86C314.87,86.23,314.86,86.5,314.86,86.77Zm-58-33.93c-3.52,0-6.86,0-10.21,0-.75,0-1,.2-1,1,0,6.58,0,13.16,0,19.74,0,4.46,0,8.94.17,13.4s2.4,7.8,6.64,9.41a24.16,24.16,0,0,0,16.9.12,9.69,9.69,0,0,0,6.55-7.24,20.31,20.31,0,0,0,.5-4.39c0-10.39,0-20.78,0-31.17,0-.66-.22-.83-.85-.83-3.13,0-6.26,0-9.39,0-.75,0-1,.19-1,1,0,4.58,0,9.15,0,13.73,0,6.2,0,12.39,0,18.59a3.76,3.76,0,0,1-3.95,3.76c-2.58,0-4.25-1.33-4.4-3.64,0-.68,0-1.37,0-2q0-15,0-30ZM113,96.46c2-13.14,4-26.19,5.93-39.25.18.11.24.21.25.32l2.67,18.18c1,6.66,2,13.31,2.92,20,.1.67.31.85,1,.84,3.37,0,6.74,0,10.12,0h.83c0-.24,0-.38,0-.51-.59-3.2-1.17-6.4-1.76-9.6q-3-16.38-6-32.75c-.1-.58-.29-.82-.93-.82q-9,0-17.94,0c-.59,0-.83.18-.93.74-.76,4.23-1.55,8.45-2.33,12.67Q104.53,78,102.33,89.79c-.4,2.2-.81,4.4-1.22,6.67ZM216.1,82.17a1.6,1.6,0,0,0-.39-.12l-10.78,0c-.51,0-.56.32-.55.71,0,1.42,0,2.85.11,4.27.36,4.36,2.48,7.62,6.55,9.28a23.79,23.79,0,0,0,17.88.14,9.47,9.47,0,0,0,6.34-7.5,32.27,32.27,0,0,0,.36-6.29,9.31,9.31,0,0,0-3.19-6.73,19.67,19.67,0,0,0-3.08-2.46c-2.69-1.62-5.5-3.07-8.19-4.69a29,29,0,0,1-4.32-3.1c-1.25-1.12-1.17-2.72-.71-4.22a3.14,3.14,0,0,1,2.8-2.22c2.65-.38,4.91.87,4.83,4,0,.63,0,1.27,0,1.89s.16.67.66.67c3.21,0,6.42,0,9.63,0,.53,0,.66-.22.64-.69,0-.85,0-1.7,0-2.55-.06-5-2.6-8.44-7.4-9.83a26,26,0,0,0-14-.1c-3.5.92-6.33,2.82-7.66,6.35a15.27,15.27,0,0,0-.85,3.83c-.33,3.57.44,6.84,3.16,9.38a25.14,25.14,0,0,0,3.74,2.93c2.94,1.82,6,3.42,8.93,5.25a14.32,14.32,0,0,1,3.31,2.9c1.24,1.5,1.05,3.29.29,5-.67,1.5-2.06,1.85-3.55,1.93-2.82.17-4.52-1.43-4.52-4.26Z"/></svg>