<svg id="Layer_1" data-name="Layer 1" xmlns="http://www.w3.org/2000/svg" viewBox="0 0 688 150"><path d="M174,104.78c-1.65,11.73,1,15.93,11.8,17.91a98.68,98.68,0,0,0,17.16,1.57q38.35.24,76.72,0c4.3,0,5.86,1.25,5.44,5.5a74.46,74.46,0,0,0,0,8.84c0,2.41-.82,3.58-3.44,3.55-36-.38-71.93-.33-107.88-1.31-9.35-.25-18.85-3-27.88-5.85-8.49-2.7-15.58-8-17.6-17.62a30.07,30.07,0,0,1-.48-5.85c0-12.65.2-25.3-.09-37.94-.22-9.46,3.91-16.12,11.7-20.89s16.63-6.87,25.57-7.9c30-3.43,60-4.13,89.81,1.29a58.77,58.77,0,0,1,19.13,7.21c15.23,9,15,31.25.06,40.8-9.39,6-20,8.44-30.84,9-21.17,1-42.38,1.21-63.57,1.73C177.72,104.82,175.92,104.78,174,104.78Zm-.45-18.25c1.39.15,2.21.32,3,.32,11.8,0,23.61.29,35.4-.14A85,85,0,0,0,230.59,84c6.29-1.67,7.86-4.7,7.84-11.24,0-6.09-1.85-8.73-7.87-10.9a23.41,23.41,0,0,0-6.92-1.67c-10.23-.38-20.48-.84-30.7-.56-4.51.13-9.07,1.68-13.43,3.13-3.34,1.1-5.81,3.66-5.94,7.46C173.38,75.5,173.52,80.83,173.52,86.53Z"/><path d="M493,79.77c1.56-11-1-15.08-11.23-17.06A92.08,92.08,0,0,0,465,61.09q-31.42-.29-62.84,0c-3.77,0-5.07-1.19-4.74-4.84a46.58,46.58,0,0,0,0-8c-.33-3.72.84-5.16,4.88-5.13,24.46.2,48.94-.38,73.38.36,13,.39,25.92,2.67,38.81,4.62,4,.61,8,2.59,11.71,4.54,8.8,4.65,13.44,11.79,13.15,22.17-.35,12.22-.33,24.46,0,36.68.27,10.22-4.15,17.85-13.06,21.68-8.4,3.6-17.48,6.54-26.52,7.6-27.7,3.25-55.56,3.64-83.2-.69a69.52,69.52,0,0,1-22.93-7.75c-16.24-9.15-15.91-32.5,0-42.19,9.36-5.7,19.88-8.1,30.54-8.62,21.18-1,42.41-1.21,63.61-1.73C489.46,79.74,491.14,79.77,493,79.77Zm.42,18.78c-16.62,0-32.74-.06-48.86.07a24.44,24.44,0,0,0-7,1.43c-6.79,2.13-8.94,5-9,11.4,0,7.43,1.76,10,8.83,12.34a23.16,23.16,0,0,0,6.13,1.39c10,.35,19.93.89,29.87.57,4.79-.15,9.62-1.75,14.25-3.26,3.16-1,5.61-3.49,5.73-7.15C493.5,109.75,493.37,104.15,493.37,98.55Z"/><path d="M58,25h-5.6c-13.91,0-27.82-.09-41.73.05-3.42,0-4.88-1-4.62-4.55.25-3.36.12-6.75,0-10.12C6,8.09,7.06,7.05,9.36,7.17c.85,0,1.69,0,2.53,0H150.17c5.79,0,5.79,0,5.8,5.87,0,12,0,12-11.87,12h-40c-.09,2-.22,3.62-.22,5.24q0,53.11,0,106.24c0,5.56,0,5.57-5.59,5.58-11.66,0-23.33-.2-35,.1-4.42.11-5.39-1.45-5.38-5.58.15-35.27.08-70.54.08-105.81Z"/><path d="M350.81,43.2c7.51,0,14.8.16,22.07-.07,3.63-.12,5.21,1,4.9,4.75a77.48,77.48,0,0,0,0,9.27c.11,2.89-1.06,4-4,3.91-7.57-.15-15.14-.05-23.36-.05v5.22c0,23.48-.09,47,.09,70.42,0,4.13-.87,5.67-5.32,5.55-12.08-.3-24.17-.21-36.26,0-3.4.05-4.28-1.11-4.27-4.37.1-32.05.27-64.1,0-96.15-.13-13.37,6.4-21.71,17.93-26.8C334.82,9.43,348,8,361.21,7.33c11.65-.55,23.33-.2,35-.38,2.87,0,4.12.87,4,3.87a92.33,92.33,0,0,0,0,10.12c.16,3-1.1,3.85-4,3.88-9.41.09-18.82.36-28.22.68a33.13,33.13,0,0,0-6.23,1C352.2,28.7,349.52,32.62,350.81,43.2Z"/><path d="M608.85,61.79q0,24.25,0,48.49c0,7.27,2,10.55,9,12.17a124.43,124.43,0,0,0,19.57,2.4c5.74.39,11.52.17,17.28.06,2.67,0,3.87.91,3.76,3.68-.13,3.65.19,7.33-.16,10.95-.12,1.15-1.76,3.09-2.71,3.1-22.32.13-44.75,1.3-66.56-4.95a55.87,55.87,0,0,1-12.77-5.32c-8.75-5.11-13.36-12.74-13.31-23.24q.22-48.69,0-97.38c0-3.66,1-4.9,4.76-4.84,12.08.21,24.17.25,36.25,0,4.1-.09,5,1.47,4.94,5.15C608.77,28.63,608.85,45.21,608.85,61.79Z"/><path d="M669.21,6.74A10.57,10.57,0,0,1,680,17.27a10.73,10.73,0,0,1-21.46.1A10.53,10.53,0,0,1,669.21,6.74Zm.14,1.71a8.75,8.75,0,1,0,8.74,8.84A8.69,8.69,0,0,0,669.35,8.45Z"/><path d="M671.42,18.72l2,3.6-.7.66-4.82-5.23-1.25,5-.88-.08V11.13c2.55.65,5.22.94,7.39,2.13.59.32-.33,3.39-.56,5.19Z"/></svg>