<svg id="Layer_1" data-name="Layer 1" xmlns="http://www.w3.org/2000/svg" viewBox="0 0 444 150"><path d="M82.13,99.83l-8.85,0-1.86-2.95L56.89,43.34h-1Q48.41,70.15,40.92,97l-14.35,0Q16.39,60.24,6.17,23.55A11.76,11.76,0,0,0,5,21.3V19.08H17.88c5.21,19.24,10.31,38.1,15.88,58.65,5.61-20.46,10.83-39.47,16.05-58.49H62.62C67.82,38.17,73,57,78.62,77.47c1.47-5.1,2.59-8.83,3.61-12.58C85.7,52.06,89.4,39.28,92.45,26.36c1.22-5.16,3.53-7.12,8.67-6.25a40,40,0,0,0,6.06.05c-7.07,25.54-14,50.6-20.94,75.66Z"/><path d="M243.75,29.45c5.57-3.3,10.91-7.1,16.77-9.8,12.37-5.69,25-10.8,37.53-16.15h13.42c9.35,5.39,12.21,10.84,8.13,21.36-3.93,10.17-9.86,19.57-15,29.27-.94,1.77-2.18,3.39-3.28,5.07q-6,7.14-12,14.27L273.59,89.6l-19.32,17c-13.26,8.86-26,18.7-40,26.28-11.09,6-23.68,9.3-35.63,13.76a10.06,10.06,0,0,1-2.76.4c-14.14,1.11-21.39-6.78-17-20.14,3.08-9.37,8.5-18,12.88-26.9l5.65.34c-3.55,7.48-7.85,14.72-10.44,22.51-2.83,8.5,1.86,13.8,10.86,13.27a45.56,45.56,0,0,0,13-2.59c24.05-8.89,44.59-23.37,63.62-40.18l1-.83,11.59-10.66c1.26-.63,2.88-1,3.74-2,5.83-6.7,11.49-13.53,17.21-20.32l8.37-11.31c7.29-7.89,12.27-17,13.45-27.69.74-6.65-5.29-11.41-12.87-9.77S281.84,14.44,275,17.84c-10.73,5.32-20.81,11.94-31.16,18l-.57-1.18c0-1.51,0-3,.05-4.54A4.39,4.39,0,0,1,243.75,29.45Z"/><path d="M113.62,97V22.38l0-2.14,2.1-1,1.06-.05,3.37-.12c3.54,1.15,4.68,3.39,4.6,7.22-.12,6.13.64,12.27,1,18.4,1.71-.2,3.42-.44,5.14-.6,5.65-.52,11.45-2,16.91-1.26,7.15,1,11.93,6.75,12.4,16.38l.09,3.25,0,35.66c-.15.07-.44.17-.43.22a5.87,5.87,0,0,0,.26.81l-11,.57c0-10.71.12-21.42.06-32.14,0-1.34-.76-2.68-1.16-4-3.15-10.47-9.56-12.71-22.09-7.72-.43,1.5-1.25,3-1.25,4.5-.07,13.12,0,26.25.05,39.37l-11-.59Z"/><path d="M361,71.87c-.53,4-.72,8.08-1.68,12-3,12.13-12.22,18.15-26.11,17.37-13.17-.74-21.33-7.53-22.75-19.91a82.8,82.8,0,0,1,0-19.27C312,49.42,320.08,43.61,333,43.23c5.12-.15,9.4-.32,14.44,1.9,7.18,3.16,10.18,8.48,11.95,15.09C360.39,63.93,360.45,67.89,361,71.87Zm-13.23.31c-.49-4-.6-7.53-1.4-10.91-1.47-6.22-4.64-8.74-10.33-8.89-6.3-.17-11.34,2.43-12.06,8.33-.92,7.56-.49,15.37.21,23,.52,5.71,5.33,7.43,10.42,7.47,5.55,0,9.82-2.48,11.37-8C347,79.52,347.19,75.6,347.72,72.18Z"/><path d="M418.13,73.11c-.33,6.48-.34,14.57-7,21.21-8.28,8.22-18,8-27.88,5.54-9.62-2.33-14.6-9.81-15.18-19.07a104.82,104.82,0,0,1,1.8-24.59c1.34-7.49,10.83-14.64,20.31-12.83,3.24.62,7.1-1.16,10.09-.14C414.12,48,418.1,54.59,418.13,73.11Zm-12.27-.93c-.8-4.56-1.18-8.62-2.28-12.48-1.26-4.45-4.37-7.07-9.3-7.35-5.31-.29-9.79,1.19-11.85,6.29-3.45,8.52-3.75,17.5-.05,25.82,1.46,3.26,6,7,9.24,7.18,4.25.2,9.75-1.58,11.43-7C404.33,80.44,405,76.08,405.86,72.18Z"/><path d="M243.31,30.13c0,1.51,0,3-.05,4.54,0,.75.09,1.5.13,2.25q0,30.57,0,61.14l-12.3,0c-.06-25.24-.16-50.48-.1-75.72,0-1.05,1.44-2.1,2.21-3.15l2.19-.07,2.24-.1,5.76,1.19c0,2.56,0,5.12,0,7.69Z"/><path d="M289.38,73.47q6-7.12,12-14.27c2.13,9.14,2.13,18.19-1.14,27.1-3.43,9.35-9.56,13.93-19.5,14.27-4.6.15-9.22-.14-13.83-.23-.42,1.68-1.17,3.36-1.2,5-.14,6.8-.05,13.6,0,20.4l-2.27.07-2.25.14-6.84,1.38V106.55l19.32-17C284.91,90,288.74,86.11,289.38,73.47Z"/><path d="M426.85,20.23l2.11-1,1.05-.06,3.38-.11C437,20.2,438,22.46,438,26.28c-.23,20.66,0,41.32-.14,62-.06,11.22,1.91,9.78-10,9.84a2.69,2.69,0,0,0-1,0V21.27c.15-.08.43-.21.42-.25A6.13,6.13,0,0,0,426.85,20.23Z"/><path d="M296.47,48.23,288.1,59.54c-5.17-5.69-11.67-6.65-20.73-3a7.24,7.24,0,0,0-.33,1.55c0,7.91.07,15.83.11,23.74L255.56,92.47l-1-2.15V44.65l8.83-1.08,2.06,3.17C275.8,43.27,286.55,38.14,296.47,48.23Z"/><path d="M196.05,98V44.71l8.74-.15c.51.94,1,1.89,1,1.85l19.39-4.34V54.72c-3.84,0-7.68-.2-11.49.06-3.55.24-5.29,1.89-5.19,6,.33,12.88.12,25.78.12,38.93H197.27Z"/><path d="M177.46,100.29l-5.65-.34V43.61h12.85V99.76Z"/><path d="M178.64,20.15c5.18.06,7.61,2.67,7.52,8.07-.08,5-3.26,8.22-8.06,8.17s-7.53-2.86-7.54-8.18C170.55,22.54,173,20.09,178.64,20.15Z"/><path d="M427.8,98.09c11.93-.06,10,1.38,10-9.84.11-20.65-.09-41.31.14-62,.05-3.82-1-6.08-4.57-7.21l5.61-.72v81.89l-12-1.09Z"/><path d="M125.83,44.68c-.39-6.13-1.15-12.27-1-18.4.08-3.83-1.06-6.07-4.6-7.22l5.63-.87Z"/><path d="M124.79,99.71c0-13.12-.12-26.25-.05-39.37,0-1.5.82-3,1.25-4.5,0,13.38.12,26.76.07,40.14C126.05,97.23,125.23,98.47,124.79,99.71Z"/><path d="M148.08,63.56c.4,1.33,1.15,2.67,1.16,4,.06,10.72,0,21.43-.06,32.14-.43-.89-1.22-1.77-1.22-2.65C147.93,85.89,148,74.72,148.08,63.56Z"/><path d="M26.57,96.94l14.35,0a4.94,4.94,0,0,1,0,1c-3.45.74-6.9,1.75-10.4,1.92C29.26,100,27.89,98,26.57,96.94Z"/><path d="M265.63,125.79c0-6.8-.1-13.6,0-20.4,0-1.69.78-3.37,1.2-5,0,7.3.14,14.61.05,21.92C266.91,123.44,266.08,124.61,265.63,125.79Z"/><path d="M231.1,98.1l12.3,0C240.13,101.24,233,101.26,231.1,98.1Z"/><path d="M82.13,99.83l4.11-4C85.65,97.94,86.11,101.14,82.13,99.83Z"/><path d="M243.4,20.25l-5.76-1.19C239.47,19.9,242.32,15.87,243.4,20.25Z"/><path d="M263.37,43.57l-8.83,1.08Z"/><path d="M204.78,44.56l-8.74.15Z"/><path d="M71.42,96.93l1.86,2.95Z"/><path d="M160.37,62.45l-.09-3.25Z"/><path d="M254.54,90.32l1,2.15-1,.83Z"/><path d="M235.4,19.16l-2.19.07Z"/><path d="M113.67,20.24l0,2.14Z"/><path d="M243.39,36.92l-.13-2.25.57,1.18C243.68,36.21,243.53,36.56,243.39,36.92Z"/><path d="M243.31,30.13l.08-2.19.36,1.51A4.39,4.39,0,0,0,243.31,30.13Z"/><path d="M113.62,97l.13,2.12Z"/><path d="M261.11,126l2.25-.14Z"/><path d="M116.83,19.18l-1.06.05A1,1,0,0,1,116.83,19.18Z"/><path d="M430,19.18l-1.05.06A1.09,1.09,0,0,1,430,19.18Z"/><path d="M426.85,20.23a6.13,6.13,0,0,1,.35.79s-.27.17-.42.25A1,1,0,0,1,426.85,20.23Z"/><path d="M196.05,98l1.22,1.73Z"/><path d="M427.8,98.09l-.8,1.06c-.07-.35-.15-.7-.22-1.05A2.69,2.69,0,0,1,427.8,98.09Z"/><path d="M160.23,99.14a5.87,5.87,0,0,1-.26-.81s.28-.15.43-.22Z"/></svg>